<?xml version="1.0" encoding="UTF-8"?>
<svg xmlns="http://www.w3.org/2000/svg" viewBox="0 0 360 80" role="img" aria-label="SafeBand">
  <g transform="translate(6, 4)">
    <path fill="#FFFFFF" stroke="#6BBF9A" stroke-width="1.2" stroke-linejoin="round"
      d="M30 2 C30 2 4 11 4 34 C4 56 30 70 30 70 C30 70 56 56 56 34 C56 11 30 2 30 2 Z"/>
    <circle cx="24" cy="26" r="5.2" fill="#082A4A"/>
    <path fill="#082A4A" d="M18.5 33.5 C24 31 29.5 33.5 31.5 47 C24 44.5 17 47 15.5 45 Z"/>
    <circle cx="36" cy="35" r="4.2" fill="#082A4A"/>
    <path fill="#082A4A" d="M32.5 41 C36.5 39 40.5 41 41.5 51.5 C36.5 49.5 31.5 51.5 30 50 Z"/>
    <path fill="#6BBF9A" d="M46 58 C46 54 49.5 50.5 53.5 52.5 C57.5 50.5 60.5 54 60.5 58 C60.5 63.5 53.5 69.5 53.5 69.5 C53.5 69.5 46 63.5 46 58 Z"/>
  </g>
  <text x="74" y="36" font-family="Inter, Arial, Helvetica, sans-serif" font-size="28" font-weight="800" fill="#FFFFFF">Safe</text>
  <text x="140" y="36" font-family="Inter, Arial, Helvetica, sans-serif" font-size="28" font-weight="800" fill="#6BBF9A">Band</text>
  <line x1="74" y1="44" x2="348" y2="44" stroke="rgba(255,255,255,0.5)" stroke-width="1.5" stroke-linecap="round"/>
  <text x="74" y="62" font-family="Inter, Arial, Helvetica, sans-serif" font-size="10" font-weight="600" fill="rgba(255,255,255,0.85)" letter-spacing="2.8">MEHR SICHERHEIT F&#220;R KINDER</text>
</svg>
